<?xml version="1.0"?>
<svg xmlns="http://www.w3.org/2000/svg" xmlns:xlink="http://www.w3.org/1999/xlink" xmlns:svgjs="http://svgjs.com/svgjs" version="1.1" width="512" height="512" x="0" y="0" viewBox="0 0 511 511.99972" style="enable-background:new 0 0 512 512" xml:space="preserve" class=""><g><path xmlns="http://www.w3.org/2000/svg" d="m178.910156 250.28125c-2.542968-5.082031-7.734375-8.289062-13.417968-8.289062-5.679688 0-10.875 3.207031-13.414063 8.289062l-60 119.996094c-3.703125 7.410156-.699219 16.417968 6.707031 20.125 7.410156 3.703125 16.421875.703125 20.125-6.707032l10.855469-21.707031h71.457031l10.851563 21.707031c3.707031 7.410157 12.71875 10.410157 20.125 6.707032 7.410156-3.707032 10.414062-12.714844 6.707031-20.125zm-34.144531 81.707031 20.726563-41.457031 20.730468 41.457031zm0 0" fill="#ffffff" data-original="#000000" style="" class=""/><path xmlns="http://www.w3.org/2000/svg" d="m414.191406 181.578125-22.0625-11.03125c.226563-1.820313.355469-3.671875.355469-5.554687v-59.996094c0-24.8125-20.183594-45-44.996094-45s-45 20.1875-45 45v59.996094c0 24.8125 20.1875 45 45 45 12.109375 0 23.109375-4.816407 31.207031-12.625l22.082032 11.042968c7.421875 3.710938 16.425781.683594 20.125-6.710937 3.703125-7.410157.699218-16.417969-6.710938-20.121094zm-66.703125-1.585937c-8.273437 0-15-6.726563-15-15v-59.996094c0-8.269532 6.726563-15 15-15 8.269531 0 15 6.730468 15 15v59.996094c0 8.273437-6.730469 15-15 15zm0 0" fill="#ffffff" data-original="#000000" style="" class=""/><path xmlns="http://www.w3.org/2000/svg" d="m478.632812 244.929688c21.925782-26.722657 33.847657-59.914063 33.847657-94.933594 0-82.707032-67.289063-149.996094-149.992188-149.996094-82.707031 0-149.996093 67.289062-149.996093 149.996094 0 10.976562 1.195312 21.683594 3.445312 31.996094h-200.4375c-8.285156 0-15 6.71875-15 15v239.992187c0 8.28125 6.714844 15 15 15h44.996094v44.996094c0 11.957031 13.359375 19.121093 23.320312 12.480469l86.21875-57.476563h145.453125c8.28125 0 15-6.71875 15-15v-140.441406c10.3125 2.25 21.015625 3.445312 31.996094 3.445312h134.996094c13.316406 0 20.046875-16.164062 10.605469-25.605469zm-178.144531 177.054687h-134.996093c-2.960938 0-5.855469.875-8.316407 2.519531l-66.679687 44.449219v-31.96875c0-8.285156-6.714844-15-15-15h-44.996094v-209.992187h195.414062c15.019532 32.953124 41.621094 59.554687 74.574219 74.574218zm62-151.996094c-66.167969 0-119.996093-53.828125-119.996093-119.992187 0-66.167969 53.828124-119.996094 119.996093-119.996094 66.164063 0 119.992188 53.828125 119.992188 119.996094 0 32.050781-12.480469 62.183594-35.144531 84.847656-5.859376 5.859375-5.859376 15.355469 0 21.210938l13.933593 13.933593zm0 0" fill="#ffffff" data-original="#000000" style="" class=""/></g></svg>
