<?xml version="1.0"?>
<svg xmlns="http://www.w3.org/2000/svg" xmlns:xlink="http://www.w3.org/1999/xlink" xmlns:svgjs="http://svgjs.com/svgjs" version="1.1" width="512" height="512" x="0" y="0" viewBox="0 0 512 512" style="enable-background:new 0 0 512 512" xml:space="preserve" class=""><g><g xmlns="http://www.w3.org/2000/svg"><path d="m472.306 3.685c-25.945-1.612-52.946-.57-80.249 3.101-22.66 3.048-45.831 7.948-68.87 14.569-15.596 4.481-27.042 17.134-29.872 33.023-2.835 15.914 3.546 31.766 16.652 41.368 21.812 15.982 42.5 33.717 61.489 52.713 1.797 1.798 3.577 3.619 5.351 5.447l-35.418 35.203c-2.761 2.744-2.929 7.157-.385 10.103 21.239 24.599 38.337 53.528 49.442 83.652 2.524 6.847-1.184 14.702-8.069 17.206-6.932 2.521-14.868-1.098-17.407-7.994-9.753-26.488-24.03-51.017-42.433-72.906-2.743-3.262-7.896-3.501-10.9-.487l-36.109 35.882c-2.762 2.745-2.93 7.159-.385 10.105 21.247 24.598 38.343 53.522 49.442 83.646 2.526 6.855-1.175 14.694-8.064 17.213-6.911 2.527-14.865-1.119-17.405-8.007-9.637-26.137-24.314-51.342-42.443-72.894-2.744-3.262-7.892-3.506-10.899-.486l-36.099 35.882c-2.762 2.745-2.929 7.159-.383 10.105 21.246 24.588 38.342 53.511 49.442 83.647 2.529 6.865-1.196 14.69-8.08 17.214-6.903 2.53-14.854-1.132-17.389-8.009-9.765-26.493-24.045-51.022-42.442-72.903-2.743-3.262-7.892-3.507-10.9-.488l-8.525 8.473c-2.904 2.885-2.919 7.58-.033 10.484 2.887 2.904 7.581 2.918 10.484.033l2.707-2.69c14.712 18.817 26.671 40.176 34.794 62.214 5.298 14.373 21.904 22.128 36.394 16.813 14.426-5.292 22.176-21.945 16.901-36.266-10.92-29.65-27.34-58.183-47.676-82.923l25.44-25.286c14.704 18.8 26.662 40.156 34.794 62.21 5.301 14.376 21.9 22.105 36.396 16.81 14.455-5.28 22.198-21.884 16.898-36.269-10.921-29.64-27.34-58.173-47.676-82.92l25.449-25.288c14.716 18.823 26.671 40.18 34.787 62.222 4.088 11.082 14.8 18.528 26.656 18.528 10.862 0 21.178-6.548 25.758-16.41 3.176-6.839 3.493-14.501.889-21.581-10.928-29.645-27.348-58.181-47.677-82.928l30.297-30.113c11.317 12.338 22.105 25.248 32.19 38.59 8.189 10.834 20.608 16.906 33.768 16.906 2.924 0 5.887-.3 8.846-.914 16.107-3.343 28.512-15.312 32.375-31.236 3.835-15.808 7.097-31.768 9.698-47.437 5.323-32.077 8.062-64.022 8.142-94.949.058-22.153-17.378-40.591-39.693-41.978zm16.924 134.496c-2.541 15.312-5.73 30.912-9.479 46.368-2.537 10.457-10.38 18.014-20.979 20.213-10.612 2.206-21.253-1.789-27.773-10.414-31.857-42.142-69.591-79.297-112.268-110.564-8.637-6.328-12.681-16.35-10.818-26.808 1.858-10.431 9.099-18.421 19.37-21.372 22.346-6.42 44.804-11.172 66.751-14.123 26.169-3.519 51.551-4.603 77.353-2.998 14.497.902 25.824 12.821 25.787 27.137-.079 30.13-2.752 61.271-7.944 92.561zm-329.002 181.485c-22.009-18.278-46.681-32.466-73.334-42.168-6.89-2.508-10.594-10.336-8.062-17.206 2.57-6.972 10.385-10.563 17.415-8.003 30.304 11.029 59.415 28.026 84.187 49.155 2.936 2.505 7.302 2.339 10.037-.382l36.099-35.882c3.065-3.014 2.811-8.22-.49-10.961-22.022-18.29-46.694-32.479-73.334-42.178-6.889-2.508-10.584-10.325-8.052-17.198 2.569-6.974 10.376-10.564 17.405-8.002 30.336 11.039 59.447 28.034 84.186 49.144 2.935 2.505 7.301 2.34 10.038-.381l36.099-35.882c3.064-3.013 2.811-8.218-.488-10.96-21.994-18.275-46.664-32.463-73.321-42.167-6.892-2.509-10.602-10.331-8.067-17.211 2.57-6.975 10.382-10.565 17.415-8.002 30.329 11.037 59.436 28.035 84.175 49.154 2.935 2.505 7.302 2.34 10.04-.38l19.142-19.024c2.904-2.886 2.918-7.58.032-10.484-2.887-2.904-7.581-2.918-10.485-.032l-14.357 14.268c-24.898-20.233-53.623-36.57-83.473-47.434-14.687-5.353-31.016 2.187-36.402 16.807-2.605 7.066-2.295 14.723.875 21.561 3.188 6.879 8.88 12.102 16.03 14.709 22.167 8.069 43.636 19.937 62.543 34.531l-25.426 25.273c-24.899-20.224-53.628-36.558-83.483-47.423-14.679-5.35-31.006 2.187-36.391 16.806-2.608 7.073-2.296 14.736.877 21.576 3.188 6.873 8.878 12.088 16.018 14.684 22.152 8.063 43.622 19.934 62.551 34.542l-25.426 25.273c-24.925-20.241-53.655-36.579-83.486-47.436-14.684-5.341-31.011 2.201-36.399 16.816-2.602 7.081-2.284 14.748.894 21.588 3.191 6.868 8.879 12.079 16.013 14.674 22.162 8.067 43.633 19.935 62.552 34.533-4.09 4.103-22.758 21.772-25.552 26.605-15.409-.42-31.264.433-47.272 2.586-15.976 2.148-32.313 5.603-48.555 10.27-11.744 3.376-20.364 12.907-22.496 24.877-2.135 11.987 2.669 23.925 12.538 31.156 15.184 11.125 29.588 23.473 42.811 36.7 11.873 11.877 23.049 24.721 33.219 38.173 7.612 10.069 20.005 14.54 32.071 12.037 12.13-2.517 21.473-11.533 24.384-23.529 2.698-11.122 4.995-22.355 6.825-33.386 3.748-22.585 5.677-45.08 5.733-66.863.036-13.786-8.922-25.655-21.51-29.957l24.148-24.007c3.064-3.013 2.808-8.22-.491-10.96zm-16.975 64.886c-.054 20.985-1.916 42.677-5.533 64.474-1.771 10.674-3.994 21.548-6.607 32.318-1.57 6.47-6.425 11.145-12.987 12.507-6.683 1.383-13.124-1.028-17.23-6.46-10.579-13.995-22.207-27.357-34.561-39.716-13.757-13.761-28.74-26.606-44.534-38.177-5.35-3.92-7.856-10.124-6.703-16.596 1.149-6.453 5.633-11.397 11.994-13.225 15.55-4.467 31.173-7.774 46.437-9.825 18.313-2.463 36.397-3.163 53.746-2.085 8.983.559 16.001 7.931 15.978 16.785zm314.841-307.405h-23.755v-23.756c0-4.095-3.319-7.414-7.414-7.414s-7.414 3.319-7.414 7.414v23.755h-23.756c-4.094 0-7.414 3.319-7.414 7.414s3.319 7.414 7.414 7.414h23.756v23.756c0 4.095 3.319 7.414 7.414 7.414s7.414-3.319 7.414-7.414v-23.756h23.755c4.094 0 7.414-3.319 7.414-7.414-.001-4.095-3.32-7.413-7.414-7.413z" fill="#2e8b57" data-original="#000000" style="" class=""/></g></g></svg>
