<?xml version="1.0"?>
<svg xmlns="http://www.w3.org/2000/svg" xmlns:xlink="http://www.w3.org/1999/xlink" xmlns:svgjs="http://svgjs.com/svgjs" version="1.1" width="512" height="512" x="0" y="0" viewBox="0 0 511.918 511.918" style="enable-background:new 0 0 512 512" xml:space="preserve" class=""><g><g xmlns="http://www.w3.org/2000/svg"><path d="m510.739 208.817-42.6-101.009v-31.875c0-32.053-26.077-58.13-58.13-58.13h-308.101c-32.053 0-58.129 26.077-58.129 58.13v31.875l-42.6 101.009c-1.953 4.632-1.456 9.935 1.323 14.123 2.779 4.189 7.472 6.706 12.498 6.706 6.897 0 12.565-.588 17.426-1.506-3.961 11.154-6.034 23-6.034 35.087v180.03c0 28.043 22.815 50.857 50.857 50.857h357.421c28.042 0 50.856-22.814 50.856-50.857v-180.03c0-12.068-2.068-23.906-6.041-35.089 4.862.919 10.532 1.508 17.433 1.508 5.026 0 9.72-2.518 12.499-6.706 2.779-4.189 3.275-9.491 1.322-14.123zm-436.961-132.884c0-15.511 12.619-28.13 28.129-28.13h308.102c15.511 0 28.13 12.619 28.13 28.13v19.613h-364.361zm-4.921 49.613h374.204l29.051 68.883c-.003-.001-.007-.003-.01-.004-6.51-2.662-13.694-5.59-24.68-6.835-.019-.002-.038-.004-.057-.006-3.415-.385-7.186-.613-11.433-.613-18.036 0-27.904 4.17-35.833 7.52-6.815 2.88-12.198 5.154-24.157 5.154-11.958 0-17.341-2.275-24.156-5.154-7.929-3.35-17.796-7.52-35.832-7.52-18.035 0-27.903 4.17-35.832 7.52-6.814 2.88-12.197 5.154-24.155 5.154s-17.341-2.275-24.156-5.154c-7.929-3.35-17.797-7.52-35.833-7.52s-27.905 4.17-35.834 7.52c-6.815 2.88-12.198 5.154-24.157 5.154-11.96 0-17.343-2.275-24.159-5.154-7.929-3.351-17.798-7.52-35.835-7.52-4.938 0-9.233.307-13.068.815-.068.009-.136.018-.205.028-9.99 1.347-16.75 4.095-22.901 6.611-.005.002-.009.003-.014.005zm-12.466 179.696h250.393l.001 81.872h-250.394zm399.135 138.015c0 11.501-9.356 20.857-20.856 20.857h-357.422c-11.5 0-20.857-9.356-20.857-20.857v-26.143h250.592c16.433 0 29.802-13.345 29.802-29.747l-.001-82.378c0-16.402-13.369-29.747-29.802-29.747h-250.591v-12.016c0-16.853 5.649-33.039 15.98-46.174 1.146-.05 2.34-.081 3.621-.081 11.96 0 17.343 2.274 24.159 5.154 7.929 3.351 17.797 7.52 35.835 7.52 18.037 0 27.905-4.17 35.834-7.52 6.815-2.88 12.198-5.154 24.157-5.154 11.958 0 17.342 2.274 24.157 5.154 7.929 3.35 17.797 7.52 35.833 7.52s27.904-4.17 35.832-7.52c6.815-2.88 12.197-5.154 24.154-5.154 11.958 0 17.341 2.274 24.156 5.154 7.929 3.35 17.796 7.52 35.832 7.52s27.904-4.17 35.833-7.52c6.815-2.88 12.198-5.154 24.157-5.154 1.193 0 2.306.029 3.381.072 1.498 1.713 2.825 3.426 3.933 5.109 8.033 12.192 12.279 26.396 12.279 41.073v180.032z" fill="#2e8b57" data-original="#000000" style="" class=""/></g></g></svg>
