<?xml version="1.0"?>
<svg xmlns="http://www.w3.org/2000/svg" xmlns:xlink="http://www.w3.org/1999/xlink" xmlns:svgjs="http://svgjs.com/svgjs" version="1.1" width="512" height="512" x="0" y="0" viewBox="0 0 512 512" style="enable-background:new 0 0 512 512" xml:space="preserve" class=""><g><g xmlns="http://www.w3.org/2000/svg" id="Outline"><path d="m256 496a32.038 32.038 0 0 1 -32-32v-96a80.094 80.094 0 0 0 -80-80h-18.753l9.373 9.372a32 32 0 0 1 -45.258 45.257l-64-64a32.037 32.037 0 0 1 0-45.256l64-64a32 32 0 0 1 45.258 45.256l-9.373 9.374h18.746a143.952 143.952 0 0 1 80.007 24.326v-123.085l-9.373 9.373a32 32 0 1 1 -45.258-45.256l64-64a32.04 32.04 0 0 1 45.258 0l64 64a32 32 0 0 1 -45.258 45.257l-9.369-9.374v123.085a143.952 143.952 0 0 1 80.005-24.337h18.746l-9.373-9.373a32 32 0 0 1 45.258-45.257l64 64a32.036 32.036 0 0 1 0 45.255l-64 64a32 32 0 0 1 -45.258-45.256l9.373-9.373h-18.744a80.094 80.094 0 0 0 -80 80v96a32.038 32.038 0 0 1 -32.007 32.012zm-150.068-224.007h38.061a96.113 96.113 0 0 1 96.007 96.007v96a16 16 0 1 0 32 0v-96a96.113 96.113 0 0 1 96.006-96h38.061a8 8 0 0 1 5.658 13.658l-23.032 23.03a16 16 0 0 0 22.63 22.627l64-64a16.019 16.019 0 0 0 0-22.628l-64-64a16 16 0 1 0 -22.623 22.619l23.031 23.029a8 8 0 0 1 -5.658 13.657h-38.066a127.965 127.965 0 0 0 -82.822 30.493 8 8 0 0 1 -13.185-6.094v-158.461a8 8 0 0 1 13.658-5.658l23.03 23.03a16 16 0 1 0 22.629-22.629l-64-64a16.017 16.017 0 0 0 -22.63 0l-64 64a16 16 0 0 0 22.63 22.628l23.03-23.03a8 8 0 0 1 13.653 5.659v158.461a8 8 0 0 1 -13.184 6.094 127.965 127.965 0 0 0 -82.822-30.493h-38.062a8 8 0 0 1 -5.657-13.657l23.031-23.03a16 16 0 1 0 -22.63-22.628l-64 64a16.019 16.019 0 0 0 0 22.628l64 64a16 16 0 1 0 22.629-22.628l-23.03-23.029a8 8 0 0 1 5.657-13.658z" fill="#ffffff" data-original="#000000" style="" class=""/></g></g></svg>
