<?xml version="1.0"?>
<svg xmlns="http://www.w3.org/2000/svg" xmlns:xlink="http://www.w3.org/1999/xlink" xmlns:svgjs="http://svgjs.com/svgjs" version="1.1" width="512" height="512" x="0" y="0" viewBox="0 0 511.999 511" style="enable-background:new 0 0 512 512" xml:space="preserve" class=""><g><path xmlns="http://www.w3.org/2000/svg" d="m361.921875 135.570312c0-24.824218-20.199219-45.023437-45.027344-45.023437-24.824219 0-45.023437 20.199219-45.023437 45.023437 0 24.828126 20.199218 45.023438 45.023437 45.023438 24.828125 0 45.027344-20.195312 45.027344-45.023438zm-45.027344 15.007813c-8.273437 0-15.007812-6.730469-15.007812-15.007813 0-8.273437 6.734375-15.007812 15.007812-15.007812 8.277344 0 15.011719 6.734375 15.011719 15.007812 0 8.277344-6.734375 15.007813-15.011719 15.007813zm0 0" fill="#2e8b57" data-original="#000000" style=""/><path xmlns="http://www.w3.org/2000/svg" d="m316.894531 180.59375c-41.375 0-75.039062 33.664062-75.039062 75.042969v45.023437h150.082031v-45.023437c0-41.378907-33.664062-75.042969-75.042969-75.042969zm45.027344 90.050781h-90.050781v-15.007812c0-24.828125 20.199218-45.027344 45.023437-45.027344 24.828125 0 45.027344 20.199219 45.027344 45.027344zm0 0" fill="#2e8b57" data-original="#000000" style=""/><path xmlns="http://www.w3.org/2000/svg" d="m316.894531.5c-107.578125 0-195.101562 87.523438-195.101562 195.101562 0 38.054688 10.960937 73.585938 29.875 103.636719l-151.667969 137.945313 75.3125 75.3125 137.996094-151.632813c30.039062 18.894531 65.554687 29.84375 103.585937 29.84375 107.582031 0 195.105469-87.523437 195.105469-195.101562 0-107.582031-87.523438-195.105469-195.105469-195.105469zm-242.605469 468.523438-30.8125-30.808594 22.230469-20.21875 28.808594 28.804687zm40.449219-44.445313-26.800781-26.800781 81.707031-74.316406c6.019531 6.917968 12.511719 13.414062 19.433594 19.429687zm202.15625-63.886719c-91.027343 0-165.085937-74.058594-165.085937-165.089844 0-91.027343 74.058594-165.085937 165.085937-165.085937 91.03125 0 165.089844 74.058594 165.089844 165.085937 0 91.03125-74.058594 165.089844-165.089844 165.089844zm0 0" fill="#2e8b57" data-original="#000000" style=""/></g></svg>
