<?xml version="1.0"?>
<svg xmlns="http://www.w3.org/2000/svg" xmlns:xlink="http://www.w3.org/1999/xlink" xmlns:svgjs="http://svgjs.com/svgjs" version="1.1" width="512" height="512" x="0" y="0" viewBox="0 0 480.686 480.686" style="enable-background:new 0 0 512 512" xml:space="preserve" class=""><g><g xmlns="http://www.w3.org/2000/svg"><g><g id="ouline_21_"><path d="m239.996.001c-132.549.003-239.998 107.457-239.995 240.005.001 63.65 25.287 124.693 70.295 169.701 93.348 94.102 245.306 94.714 339.409 1.367s94.714-245.306 1.367-339.409c-.455-.459-.912-.915-1.37-1.37-44.911-45.156-106.02-70.468-169.706-70.294zm0 464c-123.704.008-223.992-100.268-224-223.972-.004-56.649 21.458-111.195 60.062-152.653l84.366 84.367c-.284 2.743-.427 5.5-.428 8.258.001 6.033 2.73 11.743 7.425 15.532-11.111 13.301-9.583 33.036 3.443 44.468-13.255 11.634-14.568 31.811-2.934 45.066.913 1.041 1.893 2.021 2.934 2.934-13.255 11.634-14.568 31.811-2.934 45.066.913 1.041 1.893 2.021 2.934 2.934-6.909 6.062-10.869 14.808-10.868 24v34c0 .581.014 1.159.039 1.733.491 11.601 6.586 22.241 16.345 28.533 9.994 6.555 22.523 7.928 33.7 3.692l22.8-8.685c4.585-1.749 9.655-1.749 14.24 0l22.8 8.685c11.177 4.233 23.705 2.86 33.7-3.692 9.759-6.292 15.854-16.932 16.345-28.533.025-.574.039-1.152.039-1.733v-34c.001-9.192-3.959-17.938-10.868-24 2.789-2.455 5.132-5.375 6.925-8.629l76.568 76.567c-41.367 38.736-95.961 60.219-152.633 60.062zm-19.471-376h38.942l35.379 58.966c5.987 9.979 9.149 21.397 9.15 33.034 0 2.209-1.791 4-4 4h-104.686l-17.8-17.8c1.49-6.781 4.07-13.276 7.639-19.231zm-4.529-16v-16h48v16zm72 160h-44.686l-32-32h76.686c8.837 0 16 7.163 16 16s-7.164 16-16 16zm16 32c-.014 7.665-5.455 14.246-12.981 15.7l-31.7-31.7h28.681c8.832.01 15.989 7.168 16 16zm-115.019-63.7 31.705 31.7h-28.686c-8.837-.022-15.982-7.202-15.961-16.039.019-7.643 5.44-14.205 12.942-15.666zm3.019 47.7h44.686l32 32h-76.686c-8.837 0-16-7.163-16-16s7.163-16 16-16zm0 48h92.686l19.019 19.019c-1.454 7.528-8.038 12.969-15.705 12.981h-96c-8.837 0-16-7.163-16-16s7.163-16 16-16zm0 48h96c8.832.01 15.99 7.168 16 16v34c0 .34-.008.677-.023 1.013-.288 6.463-3.697 12.383-9.141 15.878-5.684 3.785-12.851 4.574-19.222 2.115l-13.875-5.286 3.575-1.43c4.291-1.724 9.081-1.724 13.372 0 4.121 1.594 8.753-.454 10.347-4.575 1.568-4.055-.388-8.62-4.406-10.28-8.103-3.257-17.151-3.257-25.254 0l-32.315 12.926c-.039.015-.074.035-.112.051l-22.56 8.594c-6.371 2.458-13.538 1.669-19.222-2.115-5.444-3.495-8.853-9.415-9.141-15.878-.015-.336-.023-.673-.023-1.013v-34c.01-8.832 7.168-15.99 16-16zm211.938 48.625-84.138-84.135c-.876-7.922-4.681-15.23-10.668-20.49 13.255-11.634 14.568-31.811 2.934-45.066-.913-1.041-1.893-2.021-2.934-2.934 13.026-11.432 14.554-31.167 3.443-44.468 4.695-3.789 7.424-9.499 7.425-15.532-.001-14.537-3.951-28.8-11.43-41.266l-31.519-52.534c1.867-1.517 2.95-3.795 2.949-6.2v-28c-.007-6.624-5.376-11.993-12-12h-56c-6.624.007-11.993 5.376-12 12v28c-.001 2.405 1.082 4.683 2.949 6.2l-31.519 52.534c-2.762 4.605-5.054 9.476-6.843 14.539l-77.212-77.212c90.529-84.304 232.259-79.259 316.563 11.27 80.093 86.006 80.092 219.288 0 305.294z" fill="#2e8b57" data-original="#000000" style=""/><path d="m269.49 156.194 4.923 8c2.316 3.763 7.243 4.936 11.007 2.62 3.763-2.316 4.936-7.243 2.621-11.007l-4.923-8c-2.316-3.763-7.243-4.936-11.007-2.62s-4.937 7.244-2.621 11.007z" fill="#2e8b57" data-original="#000000" style=""/><path d="m255.952 134.194c2.316 3.763 7.244 4.936 11.007 2.62s4.936-7.243 2.621-11.007l-14.77-24c-2.335-3.751-7.269-4.898-11.02-2.563-3.723 2.318-4.886 7.202-2.606 10.949z" fill="#2e8b57" data-original="#000000" style=""/></g></g></g></g></svg>
