<?xml version="1.0"?>
<svg xmlns="http://www.w3.org/2000/svg" xmlns:xlink="http://www.w3.org/1999/xlink" xmlns:svgjs="http://svgjs.com/svgjs" version="1.1" width="512" height="512" x="0" y="0" viewBox="0 0 512 512" style="enable-background:new 0 0 512 512" xml:space="preserve" class=""><g><g xmlns="http://www.w3.org/2000/svg" id="_17-no_plastic" data-name="17-no plastic"><path d="M411.178,147.57A204.286,204.286,0,0,0,300,80.778V67.3A11.992,11.992,0,0,0,308,56V16A12,12,0,0,0,296,4H216a12,12,0,0,0-12,12V56a11.992,11.992,0,0,0,8,11.3V80.778a204.017,204.017,0,0,0-55.953,377.079A52.054,52.054,0,0,0,208,508h96a52.054,52.054,0,0,0,51.953-50.143A204.03,204.03,0,0,0,411.178,147.57Zm-56.6,16.882A51.655,51.655,0,0,0,340.77,139.8l-31.95-31.95a178.881,178.881,0,0,1,65.85,36.51ZM156,429.686a180.535,180.535,0,0,1-18.556-14.159L156,396.971Zm24-56.715L284.971,268H332V412H180ZM180,268h71.029L180,339.029Zm152-24H308.971L332,220.971Zm-56.971,0H180V176.569a27.818,27.818,0,0,1,8.2-19.8l44.284-44.285A12,12,0,0,0,236,104V68h40v36a12,12,0,0,0,3.515,8.485L323.8,156.77a27.818,27.818,0,0,1,8.2,19.8v10.46ZM228,28h56V44H228ZM76,280A179.324,179.324,0,0,1,203.18,107.849L171.23,139.8A51.663,51.663,0,0,0,156,176.569v186.46l-35.543,35.544A179.449,179.449,0,0,1,76,280ZM332,456a28.032,28.032,0,0,1-28,28H208a28.032,28.032,0,0,1-28-28V436H332Zm24-26.314V196.971l35.635-35.635A180.384,180.384,0,0,1,356,429.686Z" fill="#2e8b57" data-original="#000000" style="" class=""/></g></g></svg>
