<?xml version="1.0"?>
<svg xmlns="http://www.w3.org/2000/svg" xmlns:xlink="http://www.w3.org/1999/xlink" xmlns:svgjs="http://svgjs.com/svgjs" version="1.1" width="512" height="512" x="0" y="0" viewBox="0 0 511.819 511.819" style="enable-background:new 0 0 512 512" xml:space="preserve" class=""><g><path xmlns="http://www.w3.org/2000/svg" d="m437.471 236.146h-70.735c8.682-5.974 16.637-12.822 23.831-20.562 48.868-52.574 44.101-126.005 43.874-129.105l-.945-12.92-12.92-.945c-2.563-.188-53.077-3.461-100.205 22.917-14.672-51.981-52.715-85.385-54.658-87.064l-9.803-8.467-9.804 8.467c-1.943 1.678-39.985 35.083-54.658 87.064-47.129-26.378-97.645-23.102-100.205-22.918l-12.92.945-.945 12.92c-.227 3.101-4.994 76.531 43.874 129.105 7.194 7.74 15.15 14.588 23.831 20.562h-70.735v30h31.262l16.367 245.674h267.865l16.367-245.674h31.262zm-33.052-133.466c-1.149 21.088-7.282 61.771-35.825 92.479-18.913 20.348-44.901 33.186-77.515 38.364 24.471-32.842 36.198-67.278 34.902-102.741-.041-1.126-.095-2.247-.162-3.362 28.116-19.038 60.552-23.715 78.6-24.74zm-188.61 29.452c1.433-41.797 26.013-75.159 40.132-90.979 14.098 15.725 38.53 48.828 40.061 90.725 1.211 33.141-12.265 65.844-40.092 97.388-27.756-31.465-41.234-64.081-40.101-97.134zm-108.365-29.496c18.025.983 50.365 5.62 78.557 24.768-.067 1.12-.122 2.246-.163 3.378-1.296 35.463 10.431 69.899 34.902 102.741-32.515-5.163-58.444-17.938-77.341-38.177-28.542-30.569-34.753-71.539-35.955-92.71zm42.601 379.183-1.999-30h215.727l-1.999 30zm215.727-60h-219.724l-10.371-155.674h240.466z" fill="#2e8b57" data-original="#000000" style="" class=""/></g></svg>
