<?xml version="1.0"?>
<svg xmlns="http://www.w3.org/2000/svg" xmlns:xlink="http://www.w3.org/1999/xlink" xmlns:svgjs="http://svgjs.com/svgjs" version="1.1" width="512" height="512" x="0" y="0" viewBox="0 0 512.637 512.637" style="enable-background:new 0 0 512 512" xml:space="preserve" class=""><g><path xmlns="http://www.w3.org/2000/svg" id="XMLID_910_" d="m321.873 85.7c-6.34-5.072-13.479-9.225-21.055-12.279v-73.421h-89v73.421c-7.575 3.055-14.715 7.207-21.054 12.279-23.374 18.699-36.779 46.591-36.779 76.523v306.303c0 24.322 19.788 44.11 44.11 44.11 11.145 0 21.338-4.155 29.111-10.996 7.773 6.841 17.967 10.996 29.111 10.996s21.338-4.155 29.111-10.996c7.773 6.841 17.967 10.996 29.111 10.996 24.322 0 44.11-19.788 44.11-44.11v-306.302c.002-29.933-13.403-57.825-36.776-76.524zm-137.888 159.639h144.666v81.333h-144.666zm144.666 223.187c0 7.78-6.33 14.11-14.11 14.11-7.781 0-14.111-6.33-14.111-14.11v-5.541h-30v5.541c0 7.78-6.33 14.11-14.111 14.11s-14.111-6.33-14.111-14.11v-5.541h-30v5.541c0 7.78-6.33 14.11-14.111 14.11-7.78 0-14.11-6.33-14.11-14.11v-111.854h144.666v111.854zm-144.666-253.187v-53.115c0-20.77 9.302-40.123 25.521-53.098 6.065-4.853 13.281-8.396 20.867-10.247l11.445-2.792v-66.087h29v66.087l11.445 2.792c7.586 1.851 14.802 5.395 20.867 10.247h.001c16.218 12.975 25.52 32.328 25.52 53.098v53.115z" fill="#2e8b57" data-original="#000000" style="" class=""/></g></svg>
