<?xml version="1.0"?>
<svg xmlns="http://www.w3.org/2000/svg" xmlns:xlink="http://www.w3.org/1999/xlink" xmlns:svgjs="http://svgjs.com/svgjs" version="1.1" width="512" height="512" x="0" y="0" viewBox="0 0 511.99924 511" style="enable-background:new 0 0 512 512" xml:space="preserve" class=""><g><path xmlns="http://www.w3.org/2000/svg" d="m510.183594 317.742188c-.566406-1.042969 4.480468 7.796874-44.003906-76.941407-4.09375-7.148437-13.183594-9.664062-20.367188-5.628906l-62.023438 34.839844c-7.261718 4.078125-9.8125 13.300781-5.675781 20.527343l34.9375 61.058594-80.339843.097656v-20.277343c0-13.40625-16.308594-20.054688-25.691407-10.523438l-70.402343 71.519531c-5.800782 5.890626-5.738282 15.363282.132812 21.179688l70.402344 69.753906c9.4375 9.351563 25.558594 2.683594 25.558594-10.65625v-20.359375l109.890624-.125c5.742188-.003906 10.980469-3.289062 13.484376-8.457031 49.175781-101.503906 32.222656-66.519531 54.367187-112.21875 2.144531-4.332031 2.0625-9.476562-.269531-13.789062zm-77.003906 104.476562-115.484376.128906c-8.070312.011719-14.648437 6.390625-14.972656 14.378906l-34.238281-33.921874 34.277344-34.824219c.660156 7.742187 7.132812 13.730469 14.964843 13.730469 5.453126-.007813 127.246094-.148438 135.152344-.160157zm14.414062-70.660156-35.933594-62.796875 35.871094-20.144531 32.523438 56.84375-12.632813 26.074218zm0 0" fill="#2e8b57" data-original="#000000" style="" class=""/><path xmlns="http://www.w3.org/2000/svg" d="m175.710938 351.652344-71.027344.0625 39.398437-69.183594 18.007813 10.09375c11.695312 6.550781 25.507812-4.429688 21.726562-17.308594l-28.15625-95.933594c-2.308594-7.847656-10.480468-12.40625-18.367187-10.238281l-95.945313 26.363281c-12.917968 3.550782-15.019531 21.011719-3.363281 27.546876l17.875 10.019531-53.894531 94.628906c-2.875 5.046875-2.574219 11.300781.765625 16.050781 77.664062 110.476563 72.410156 103.890625 76.035156 106.222656 5.128906 3.304688.671875 2.398438 97.027344 2.316407 8.285156-.003907 14.996093-6.726563 14.988281-15.011719l-.058594-70.640625c-.003906-8.265625-6.710937-14.988281-15.011718-14.988281zm-86.308594-116.851563c3.945312-6.929687 1.773437-15.730469-4.914063-20.035156l46.535157-12.785156 13.664062 46.550781c-7.003906-3.234375-15.421875-.609375-19.304688 6.207031-2.890624 5.074219-63.722656 111.898438-66.484374 116.75l-26.15625-37.203125zm5.257812 187.5625-16.6875-23.742187 9.621094-16.894532 73.144531-.0625.03125 40.640626zm0 0" fill="#2e8b57" data-original="#000000" style="" class=""/><path xmlns="http://www.w3.org/2000/svg" d="m301.234375 152.464844-17.671875 10.1875c-11.660156 6.726562-9.199219 24.300781 3.875 27.550781 105.613281 26.253906 98.796875 24.757813 101.4375 24.757813 6.636719 0 12.695312-4.4375 14.480469-11.140626l25.417969-95.382812c3.429687-12.875-10.449219-23.511719-21.988282-16.859375l-17.949218 10.355469-55.394532-94.046875c-2.699218-4.578125-7.613281-7.386719-12.925781-7.386719-6.292969 0-113.289063 0-119.527344 0-5.363281 0-10.296875 2.917969-12.929687 7.390625l-50.617188 86.015625c-4.222656 7.175781-1.789062 16.429688 5.421875 20.59375l61.585938 35.589844c7.136719 4.125 16.257812 1.71875 20.433593-5.378906l35.871094-60.953126zm10.707031-121.964844 58.589844 99.464844c4.085938 6.9375 12.898438 9.386718 19.957031 5.636718l-12.320312 46.242188-47.511719-11.808594c6.238281-4.53125 8.042969-13.082031 4.113281-19.757812-.625-1.054688-48.996093-83.148438-70.578125-119.777344zm-105.367187 86.167969-35.609375-20.578125 38.601562-65.589844h19.804688l13.964844 23.703125zm0 0" fill="#2e8b57" data-original="#000000" style="" class=""/></g></svg>
