<?xml version="1.0"?>
<svg xmlns="http://www.w3.org/2000/svg" xmlns:xlink="http://www.w3.org/1999/xlink" xmlns:svgjs="http://svgjs.com/svgjs" version="1.1" width="512" height="512" x="0" y="0" viewBox="0 0 512 512" style="enable-background:new 0 0 512 512" xml:space="preserve" class=""><g><g xmlns="http://www.w3.org/2000/svg"><path d="m436 120h-18.289l-27.159-108.638c-1.669-6.677-7.669-11.362-14.552-11.362h-240c-6.883 0-12.883 4.685-14.552 11.362l-27.159 108.638h-18.289c-8.284 0-15 6.716-15 15v60c0 8.284 6.716 15 15 15h16.416l28.657 288.483c.763 7.672 7.217 13.517 14.927 13.517h240c7.71 0 14.164-5.845 14.927-13.517l28.657-288.483h16.416c8.284 0 15-6.716 15-15v-60c0-8.284-6.716-15-15-15zm-288.288-90h216.576l22.5 90h-55.788v-45c0-8.284-6.716-15-15-15h-120c-8.284 0-15 6.716-15 15v45h-55.788zm153.288 90h-90v-30h90zm-210 30h330v30h-330zm271.416 332h-212.832l-27.02-272h266.872z" fill="#2e8b57" data-original="#000000" style="" class=""/><path d="m178.057 405h48.714c8.284 0 15-6.716 15-15s-6.716-15-15-15h-22.732l11.366-19.687c4.143-7.175 1.685-16.348-5.49-20.49-7.174-4.143-16.349-1.684-20.49 5.49l-24.358 42.187c-2.68 4.641-2.68 10.359 0 15s7.631 7.5 12.99 7.5z" fill="#2e8b57" data-original="#000000" style="" class=""/><path d="m296.595 355.313 11.366 19.687h-22.732c-8.284 0-15 6.716-15 15s6.716 15 15 15h48.714c5.359 0 10.311-2.859 12.99-7.5s2.68-10.359 0-15l-24.357-42.188c-4.143-7.175-13.318-9.632-20.49-5.49-7.176 4.142-9.634 13.316-5.491 20.491z" fill="#2e8b57" data-original="#000000" style="" class=""/><path d="m224.142 310.178c7.173 4.142 16.347 1.684 20.49-5.49l11.368-19.688 11.367 19.688c2.778 4.813 7.82 7.503 13.004 7.502 2.545 0 5.124-.648 7.486-2.012 7.175-4.142 9.633-13.316 5.49-20.49l-24.357-42.188c-2.68-4.641-7.631-7.5-12.99-7.5s-10.311 2.859-12.99 7.5l-24.357 42.188c-4.143 7.174-1.685 16.348 5.489 20.49z" fill="#2e8b57" data-original="#000000" style="" class=""/></g></g></svg>
