<?xml version="1.0"?>
<svg xmlns="http://www.w3.org/2000/svg" xmlns:xlink="http://www.w3.org/1999/xlink" xmlns:svgjs="http://svgjs.com/svgjs" version="1.1" width="512" height="512" x="0" y="0" viewBox="0 0 512 512" style="enable-background:new 0 0 512 512" xml:space="preserve" class=""><g><path xmlns="http://www.w3.org/2000/svg" d="M481.451,34.115a37.23,37.23,0,0,0-49.632,2.752l-.464.464A36.187,36.187,0,0,1,405.6,48a47.239,47.239,0,0,0-26.2,86.544l3.341,2.227a48.237,48.237,0,0,0,50.968,1.756A152.824,152.824,0,0,0,490.526,81.7,37.082,37.082,0,0,0,481.451,34.115Zm-4.816,39.65a136.814,136.814,0,0,1-50.87,50.87,32.322,32.322,0,0,1-34.154-1.176l-3.341-2.228A31.239,31.239,0,0,1,405.6,64a52.088,52.088,0,0,0,37.074-15.357l.463-.464a21.265,21.265,0,0,1,33.5,25.586Z" fill="#ffffff" data-original="#000000" style="" class=""/><path xmlns="http://www.w3.org/2000/svg" d="M71.85,496h80.3A39.812,39.812,0,0,0,184,480.071,39.812,39.812,0,0,0,215.85,496h80.3A39.812,39.812,0,0,0,328,480.071,39.812,39.812,0,0,0,359.85,496h80.3A39.894,39.894,0,0,0,480,456.15v-64.3a39.9,39.9,0,0,0-35.2-39.569l18.351-36.7a8,8,0,0,0-3.577-10.733l-19.994-10a31.2,31.2,0,0,0-31.19,1.942,15.1,15.1,0,0,1-16.788,0,31.19,31.19,0,0,0-31.19-1.942l-19.994,10a8,8,0,0,0-3.577,10.733l18.351,36.7A39.856,39.856,0,0,0,328,367.929a39.856,39.856,0,0,0-27.2-15.648l18.351-36.7a8,8,0,0,0-3.577-10.733l-19.994-10a31.2,31.2,0,0,0-31.19,1.942,15.1,15.1,0,0,1-16.788,0,31.19,31.19,0,0,0-31.19-1.942l-19.994,10a8,8,0,0,0-3.577,10.733l18.351,36.7A39.856,39.856,0,0,0,184,367.929a39.856,39.856,0,0,0-27.2-15.648l18.351-36.7a8,8,0,0,0-3.577-10.733l-19.994-10a31.2,31.2,0,0,0-31.19,1.942,15.089,15.089,0,0,1-15.753.629A117.3,117.3,0,0,1,104,285.207v-25.6a114.913,114.913,0,0,1,33.4-81.286A116.345,116.345,0,0,1,219.608,144h6.207a167.909,167.909,0,0,0-48.675,51.884l13.72,8.232a151.877,151.877,0,0,1,51.191-51.566l-17.64,52.92,15.178,5.06L256,161.3l16.411,49.232,15.178-5.06-17.64-52.92a151.877,151.877,0,0,1,51.191,51.566l13.72-8.232A167.909,167.909,0,0,0,286.185,144h6.207A115.381,115.381,0,0,1,370,173.924l10.743-11.858a131.321,131.321,0,0,0-65.214-32.017l35.739-77.9a8,8,0,0,0-1.614-8.993L331.8,25.3a25.345,25.345,0,0,0-38.2,2.716,9.349,9.349,0,0,1-14.085,1l-5.593-5.594a25.377,25.377,0,0,0-35.845,0l-5.592,5.592a9.348,9.348,0,0,1-14.085-1A25.345,25.345,0,0,0,180.2,25.3L162.343,43.158a8,8,0,0,0-1.614,8.993l35.755,77.934a132.537,132.537,0,0,0-70.459,36.987A130.816,130.816,0,0,0,88,259.608v25.6c0,2.139.071,4.281.174,6.421a31.114,31.114,0,0,0-15.758,3.22l-19.994,10a8,8,0,0,0-3.577,10.733l18.351,36.7A39.9,39.9,0,0,0,32,391.85v64.3A39.894,39.894,0,0,0,71.85,496ZM213.131,128,177.592,50.537l13.923-13.923a9.345,9.345,0,0,1,14.085,1,25.346,25.346,0,0,0,38.2,2.714l5.592-5.592a9.358,9.358,0,0,1,13.217,0L268.2,40.33a25.347,25.347,0,0,0,38.2-2.715,9.345,9.345,0,0,1,14.085-1l13.923,13.923L298.869,128H268.944l18.211-36.422-14.31-7.156L256,118.111,239.155,84.422l-14.31,7.156L243.056,128H213.131Zm154.44,181.158a15.165,15.165,0,0,1,15.16.945,31.049,31.049,0,0,0,34.538,0,15.16,15.16,0,0,1,15.16-.945l12.838,6.419L427.056,352H372.944l-18.211-36.423ZM359.85,368h20.836l-26.343,26.343,11.314,11.314L392,379.313V408h16V379.313l26.343,26.344,11.314-11.314L419.314,368H440.15A23.877,23.877,0,0,1,464,391.85v64.3A23.877,23.877,0,0,1,440.15,480h-80.3A23.877,23.877,0,0,1,336,456.15v-64.3A23.877,23.877,0,0,1,359.85,368ZM223.571,309.158a15.165,15.165,0,0,1,15.16.945,31.049,31.049,0,0,0,34.538,0,15.16,15.16,0,0,1,15.16-.945l12.838,6.419L283.056,352H228.944l-18.211-36.423ZM215.85,368h20.836l-26.343,26.343,11.314,11.314L248,379.313V408h16V379.313l26.343,26.344,11.314-11.314L275.314,368H296.15A23.877,23.877,0,0,1,320,391.85v64.3A23.877,23.877,0,0,1,296.15,480h-80.3A23.877,23.877,0,0,1,192,456.15v-64.3A23.877,23.877,0,0,1,215.85,368ZM79.571,309.158a15.165,15.165,0,0,1,15.16.945,31.049,31.049,0,0,0,34.538,0,15.161,15.161,0,0,1,15.16-.945l12.838,6.419L139.056,352H84.944L66.733,315.577ZM48,391.85A23.877,23.877,0,0,1,71.85,368H92.686L66.343,394.343l11.314,11.314L104,379.313V408h16V379.313l26.343,26.344,11.314-11.314L131.314,368H152.15A23.877,23.877,0,0,1,176,391.85v64.3A23.877,23.877,0,0,1,152.15,480H71.85A23.877,23.877,0,0,1,48,456.15Z" fill="#ffffff" data-original="#000000" style="" class=""/><path xmlns="http://www.w3.org/2000/svg" d="M64,180.284a36.047,36.047,0,0,0,25.657-10.627l32-32A36.284,36.284,0,0,0,70.343,86.343l-32,32A36.284,36.284,0,0,0,64,180.284ZM49.657,129.657l32-32a20.284,20.284,0,0,1,28.686,28.686l-32,32a20.284,20.284,0,0,1-28.686-28.686Z" fill="#ffffff" data-original="#000000" style="" class=""/><rect xmlns="http://www.w3.org/2000/svg" x="56" y="136" width="16" height="16" fill="#ffffff" data-original="#000000" style="" class=""/><rect xmlns="http://www.w3.org/2000/svg" x="80" y="112" width="16" height="16" fill="#ffffff" data-original="#000000" style="" class=""/><rect xmlns="http://www.w3.org/2000/svg" x="392" y="88" width="16" height="16" fill="#ffffff" data-original="#000000" style="" class=""/><rect xmlns="http://www.w3.org/2000/svg" x="416" y="72" width="16" height="16" fill="#ffffff" data-original="#000000" style="" class=""/><rect xmlns="http://www.w3.org/2000/svg" x="448" y="72" width="16" height="16" fill="#ffffff" data-original="#000000" style="" class=""/><path xmlns="http://www.w3.org/2000/svg" d="M400,160v16.805A40.119,40.119,0,0,0,368.805,208H352v16h16.805a39.764,39.764,0,0,0,5.839,14.042l-12.3,12.3,11.314,11.314,12.3-12.3a39.891,39.891,0,0,0,48.6-3.482l15.783,15.783,11.314-11.314L444.234,232.92a39.892,39.892,0,0,0,0-33.84l17.423-17.423-11.314-11.314L434.56,186.126A39.894,39.894,0,0,0,416,176.805V160Zm32,56a24,24,0,1,1-24-24A24.028,24.028,0,0,1,432,216Z" fill="#ffffff" data-original="#000000" style="" class=""/></g></svg>
