<?xml version="1.0"?>
<svg xmlns="http://www.w3.org/2000/svg" xmlns:xlink="http://www.w3.org/1999/xlink" xmlns:svgjs="http://svgjs.com/svgjs" version="1.1" width="512" height="512" x="0" y="0" viewBox="0 0 511.999 511.999" style="enable-background:new 0 0 512 512" xml:space="preserve" class=""><g><g xmlns="http://www.w3.org/2000/svg"><path d="m376 242c8.284 0 15-6.716 15-15 0-.009-.001-.018-.001-.027-.008-20.666-9.808-39.883-27.596-54.114-16.814-13.452-38.977-20.86-62.403-20.86-10.551 0-20.833 1.501-30.521 4.395-1.254-12.724-4.758-25.013-10.313-36.394h2.709c57.897 0 105-47.103 105-105 0-8.284-6.716-15-15-15h-30c-48.049 0-88.66 32.442-101.087 76.571-16.607-10.792-35.791-16.571-55.788-16.571-8.284 0-15 6.716-15 15s6.716 15 15 15c37.024 0 68.804 29.249 74.187 65.997-9.296-2.638-19.12-3.999-29.188-3.999-23.426 0-45.588 7.408-62.403 20.86-17.796 14.237-27.597 33.464-27.597 54.14 0 8.232 6.663 15.001 15.001 15.001 21.284 0 45 36.962 45 90 0 53.016-23.696 89.967-44.973 89.999h-.028c-8.284 0-15 6.716-15 15 0 44.293 43.49 75 90 75 15.996 0 31.381-3.428 45-9.974 13.62 6.546 29.005 9.974 45 9.974 46.782 0 89.98-30.921 90-74.971 0-.009.001-.019.001-.028 0-8.232-6.663-15.001-15.001-15.001h-.026c-21.278-.031-44.973-36.982-44.973-89.998 0-53.038 23.716-90 45-90zm-53.125-212h13.493c-6.97 34.191-37.274 60-73.493 60h-13.493c6.969-34.191 37.274-60 73.493-60zm-111.876 151.999c13.658 0 26.548 3.407 37.273 9.853 4.683 2.812 10.652 2.878 15.452 0 10.728-6.446 23.616-9.853 37.274-9.853 26.075 0 48.318 12.539 56.573 30.001h-203.145c8.254-17.462 30.498-30.001 56.573-30.001zm90 300c-13.658 0-26.547-3.407-37.274-9.853-4.754-2.857-10.696-2.857-15.452 0-10.726 6.445-23.615 9.853-37.273 9.853-26.075 0-48.318-12.539-56.573-30h203.146c-8.256 17.46-30.499 30-56.574 30zm-114.896-59.999c15.359-21.826 24.897-53.8 24.897-90 0-36.202-9.539-68.177-24.899-90.001h139.798c-15.36 21.824-24.899 53.799-24.899 90.001 0 36.2 9.538 68.174 24.897 90z" fill="#2e8b57" data-original="#000000" style="" class=""/><path d="m256 272c-8.284 0-15 6.716-15 15v15c0 8.284 6.716 15 15 15s15-6.716 15-15v-15c0-8.284-6.716-15-15-15z" fill="#2e8b57" data-original="#000000" style="" class=""/><path d="m256 347c-8.284 0-15 6.716-15 15v15c0 8.284 6.716 15 15 15s15-6.716 15-15v-15c0-8.284-6.716-15-15-15z" fill="#2e8b57" data-original="#000000" style="" class=""/></g></g></svg>
